<svg id="svg" xmlns="http://www.w3.org/2000/svg" xmlns:xlink="http://www.w3.org/1999/xlink" viewBox="0, 0, 400,400">
  <path id="path0" d="M97.201 6.583 C 60.546 14.578,37.512 48.451,40.079 90.585 C 41.762 118.226,51.151 140.326,77.931 179.680 C 147.921 282.534,182.123 346.881,186.219 383.407 C 187.236 392.478,189.400 396.023,194.744 397.378 C 203.031 399.479,206.068 394.941,208.149 377.346 C 213.590 331.353,238.377 295.838,299.452 246.532 C 346.138 208.842,360.679 192.896,373.948 164.842 C 403.880 101.554,373.099 25.317,317.673 25.463 C 287.342 25.543,257.675 47.080,241.758 80.575 L 237.428 89.687 235.719 82.885 C 223.510 34.280,151.664 -5.296,97.201 6.583 " ></path>
</svg>